<svg width="133" height="38" viewBox="0 0 133 38" xmlns="http://www.w3.org/2000/svg"><g fill-rule="nonzero" fill="none"><path d="M128.697 0H4.3C1.928 0 0 1.91 0 4.269V33.73C0 36.088 1.926 38 4.302 38h124.396c2.376 0 4.302-1.912 4.302-4.269V4.27C133 1.91 131.074 0 128.697 0z" fill="#000"/><path d="M25.51 9.04c1.587-1.89 1.256-3.85 1.256-3.85s-2.22.01-3.815 2.096c-1.41 1.854-1.05 3.442-1.05 3.442s1.93.33 3.62-1.688h-.011zm3.046 8.92c0-3.235 2.628-4.567 2.628-4.567s-1.345-2.41-4.758-2.41c-1.984 0-3.508 1.12-4.33 1.12-.955 0-2.382-1.053-4.222-1.053-2.83 0-5.848 2.514-5.848 7.307 0 4.87 3.564 10.93 6.387 10.93.984 0 2.497-.986 4.02-.986 1.496 0 2.598.95 4.02.95 3.09 0 5.377-6.38 5.377-6.38s-3.272-1.25-3.272-4.9h-.002v-.011zM43.933 6.298c.44-.267 1.043-.49 1.84-.49 1.26 0 2.05.63 2.05 1.562 0 .774-.546 1.32-1.287 1.495v.018c.836.09 1.513.647 1.513 1.504 0 1.348-1.3 1.847-2.48 1.847-.62 0-1.28-.13-1.8-.425l.27-.88c.31.16.92.37 1.47.37.82 0 1.29-.39 1.29-.98 0-.8-.81-1-1.51-1h-.49v-.85h.5c.73 0 1.29-.38 1.29-.94 0-.51-.4-.82-1.04-.82-.49 0-1.01.19-1.36.38l-.29-.82.034.029zm8.057 5.834l-.075-.5h-.028c-.283.35-.762.6-1.354.6-.92 0-1.438-.654-1.438-1.338 0-1.135 1.026-1.708 2.717-1.698v-.074c0-.295-.122-.785-.93-.785-.452 0-.92.138-1.23.332l-.226-.74c.338-.21.93-.4 1.653-.4 1.46 0 1.88.91 1.88 1.89v1.62c0 .4.02.8.06 1.08h-1.04l.011.013zm-.15-2.197c-.817-.02-1.596.157-1.596.84 0 .442.29.646.657.646.46 0 .8-.29.91-.61.03-.08.04-.17.04-.25v-.62l-.011-.006zm5.736-2.3v.896h-1.87v3.6h-1.154V7.64h3.024v-.005zm1.077 1.496c0-.59-.018-1.07-.037-1.49h1.015l.06.69h.02c.34-.5.87-.79 1.57-.79 1.05 0 1.93.89 1.93 2.29 0 1.63-1.04 2.41-2.08 2.41-.57 0-1.05-.24-1.28-.6h-.02v2.33h-1.16V9.13l-.018.001zm1.155 1.12c0 .12.01.22.04.32.11.46.525.8 1.013.8.74 0 1.17-.6 1.17-1.48 0-.79-.39-1.44-1.13-1.44-.47 0-.92.34-1.03.84-.02.1-.04.2-.04.29v.69l-.023-.02zm5.295-2.61l.827 2.41c.094.28.188.62.253.88h.028c.08-.25.16-.59.25-.88l.72-2.4h1.24l-1.15 3.06c-.62 1.68-1.05 2.43-1.59 2.89-.45.4-.92.55-1.21.59l-.26-.96c.2-.05.45-.15.68-.31.22-.14.47-.41.63-.71.05-.08.08-.15.08-.2 0-.04-.01-.11-.07-.22l-1.67-4.13h1.26l-.018-.02zm4.827 1.82h.55c.63 0 .997-.25.997-.57 0-.32-.31-.54-.827-.54-.385 0-.81.13-1.127.33L69.278 8c.498-.307 1.12-.445 1.71-.445.77 0 1.71.295 1.71 1.19 0 .58-.527.906-1.006 1.017v.02c.61.066 1.212.426 1.212 1.09 0 1.043-1.193 1.367-2.133 1.367-.6 0-1.2-.15-1.65-.41l.27-.72c.32.17.81.3 1.27.3.64 0 .99-.26.99-.61 0-.47-.49-.62-1.14-.62h-.56v-.72l-.021.002zm5.38-1.82v1.62c0 .71-.03 1.19-.07 1.82h.03c.24-.52.382-.85.62-1.33l1.124-2.1h1.4v4.5h-1.1v-1.61c0-.72.03-1.05.076-1.9h-.037c-.224.54-.375.86-.602 1.29-.35.67-.77 1.48-1.16 2.22h-1.38v-4.5h1.1l-.001-.01zm8.06 0v.88H82v3.62h-1.157V8.52H79.47v-.88h3.9v.001zm1.755 2.57c.028.81.676 1.17 1.408 1.17.536 0 .92-.07 1.27-.2l.167.79c-.394.16-.94.28-1.595.28-1.485 0-2.358-.89-2.358-2.27 0-1.24.77-2.42 2.235-2.42 1.483 0 1.97 1.2 1.97 2.19 0 .21-.017.38-.035.48h-3.063l.001-.02zm2.01-.79c.008-.41-.18-1.1-.95-1.1-.713 0-1.014.64-1.06 1.1h2.01zm4.7-1.72c.34-.05 1.033-.11 1.663-.11.77 0 2.162.11 2.162 1.14 0 .57-.452.9-.94 1v.02c.676.1 1.145.47 1.145 1.1 0 1.24-1.652 1.36-2.573 1.36-.573 0-1.184-.03-1.456-.06V7.7l-.001.001zm1.118 3.76c.188.02.33.03.563.03.525 0 1.164-.13 1.164-.66 0-.5-.506-.67-1.23-.67h-.5v1.31h.003v-.01zm.01-1.99h.478c.6 0 1.08-.16 1.08-.59 0-.36-.32-.55-1-.55-.22 0-.37.02-.55.04v1.1h-.008zm-41.9 18.62h-2.158l-1.182-3.69h-4.11l-1.126 3.69h-2.103l4.07-12.54h2.516l4.09 12.55.003-.01zm-3.697-5.23l-1.07-3.27c-.11-.33-.323-1.12-.637-2.36h-.04c-.13.54-.33 1.33-.6 2.37l-1.05 3.28h3.39l.007-.02zm14.166.6c0 1.54-.42 2.76-1.257 3.65-.75.8-1.682 1.19-2.796 1.19-1.2 0-2.06-.42-2.59-1.28h-.04v4.77h-2.02v-9.75c0-.96-.03-1.96-.08-2.97h1.78l.11 1.44h.04c.67-1.08 1.7-1.62 3.07-1.62 1.07 0 1.97.42 2.69 1.27.72.85 1.08 1.96 1.08 3.34l.013-.04zm-2.064.08c0-.88-.2-1.6-.6-2.17-.438-.59-1.027-.89-1.763-.89-.502 0-.956.17-1.36.5-.408.33-.674.76-.8 1.3-.06.25-.092.46-.092.62v1.5c0 .66.204 1.22.61 1.67.408.458.936.68 1.586.68.76 0 1.35-.29 1.78-.87.42-.582.64-1.352.64-2.31l-.001-.03zm12.55-.07c0 1.54-.42 2.76-1.257 3.65-.75.8-1.68 1.19-2.79 1.19-1.2 0-2.06-.42-2.59-1.28h-.04v4.77h-2.03v-9.75c0-.97-.02-1.96-.07-2.98h1.79l.12 1.44h.04c.68-1.08 1.7-1.62 3.08-1.62 1.08 0 1.98.42 2.7 1.27.72.85 1.08 1.96 1.08 3.33h.01l-.043-.02zm-2.062.08c0-.88-.2-1.6-.603-2.17-.438-.59-1.024-.89-1.762-.89-.5 0-.95.17-1.36.5-.4.33-.67.76-.79 1.29-.06.25-.09.45-.09.617v1.51c0 .66.21 1.21.61 1.664.41.454.94.68 1.59.68.77 0 1.36-.29 1.79-.87.43-.587.64-1.357.64-2.31l-.025-.021zm13.787 1.05c0 1.07-.374 1.93-1.122 2.61-.82.73-1.97 1.1-3.44 1.1-1.36 0-2.45-.26-3.27-.78l.47-1.676c.89.53 1.87.8 2.93.8.77 0 1.36-.17 1.79-.515.43-.34.64-.8.64-1.37 0-.51-.17-.936-.52-1.284-.35-.35-.93-.67-1.74-.97-2.21-.82-3.31-2.02-3.31-3.6 0-1.03.39-1.88 1.16-2.54.78-.66 1.81-.982 3.1-.982 1.16 0 2.11.2 2.87.597l-.5 1.636c-.71-.383-1.51-.576-2.42-.576-.71 0-1.26.17-1.66.52-.34.31-.51.69-.51 1.13 0 .497.194.907.58 1.23.34.297.95.62 1.84.967 1.09.434 1.89.942 2.4 1.524.516.58.77 1.31.77 2.17v.007l-.058.002zm6.7-4.02H88.21v4.39c0 1.12.393 1.68 1.18 1.68.363 0 .663-.03.9-.09l.058 1.53c-.4.15-.925.225-1.576.225-.8 0-1.427-.24-1.877-.72-.45-.486-.677-1.297-.677-2.44v-4.56h-1.33v-1.52h1.33V17.4l1.99-.595v2.25h2.236v1.51l-.001.016zm10.075 2.94c0 1.39-.4 2.53-1.2 3.42-.84.92-1.955 1.38-3.343 1.38-1.337 0-2.403-.44-3.198-1.32-.796-.88-1.194-1.99-1.194-3.33 0-1.4.41-2.55 1.23-3.44.817-.89 1.922-1.34 3.31-1.34 1.337 0 2.414.44 3.227 1.32.776.86 1.163 1.96 1.163 3.31h.005zm-2.1.07c0-.83-.18-1.55-.545-2.15-.424-.72-1.032-1.08-1.82-1.08-.813 0-1.432.36-1.857 1.08-.363.6-.542 1.33-.542 2.19 0 .836.18 1.55.544 2.147.438.72 1.05 1.08 1.84 1.08.773 0 1.38-.365 1.82-1.1.373-.606.56-1.33.56-2.162v-.005zm8.686-2.75c-.2-.03-.415-.05-.64-.05-.712 0-1.263.27-1.65.8-.34.47-.508 1.07-.508 1.79v4.74h-2.025l.02-6.192c0-1.04-.02-1.99-.07-2.846H104l.075 1.73h.055c.212-.593.55-1.07 1.012-1.43a2.447 2.447 0 0 1 1.46-.485c.188 0 .357.014.507.04v1.9l-.005.003zm9.06 2.33c0 .36-.025.67-.075.91h-6.08c.02.9.32 1.58.88 2.05.51.42 1.17.63 1.98.63.9 0 1.72-.14 2.46-.43l.31 1.4c-.86.37-1.88.56-3.06.56-1.42 0-2.53-.41-3.33-1.24-.81-.82-1.21-1.93-1.21-3.32 0-1.363.37-2.5 1.12-3.405.78-.967 1.85-1.45 3.19-1.45 1.31 0 2.3.483 2.98 1.45.53.768.8 1.718.8 2.846l.035-.001zm-1.932-.52c.01-.59-.12-1.11-.394-1.54-.35-.56-.89-.84-1.615-.84-.663 0-1.202.27-1.614.82-.34.438-.54.958-.6 1.56h4.223z" fill="#FFF"/></g></svg>